<svg xmlns="http://www.w3.org/2000/svg" viewBox="0 0 960 560" role="img" aria-labelledby="title desc">
  <title id="title">Water refill</title>
  <desc id="desc">A pitcher pouring water into an espresso machine tank.</desc>
  <defs>
    <linearGradient id="bg" x1="0" x2="1" y1="0" y2="1">
      <stop offset="0" stop-color="#14232d"/>
      <stop offset="1" stop-color="#081016"/>
    </linearGradient>
    <linearGradient id="tank" x1="0" x2="0" y1="0" y2="1">
      <stop offset="0" stop-color="#22313b"/>
      <stop offset="1" stop-color="#101820"/>
    </linearGradient>
    <linearGradient id="water" x1="0" x2="1" y1="0" y2="1">
      <stop offset="0" stop-color="#8fe5ff"/>
      <stop offset="1" stop-color="#3aa7ff"/>
    </linearGradient>
    <filter id="softGlow" x="-20%" y="-20%" width="140%" height="140%">
      <feGaussianBlur stdDeviation="16" result="blur"/>
      <feColorMatrix in="blur" type="matrix" values="0 0 0 0 0.22 0 0 0 0 0.68 0 0 0 0 1 0 0 0 0.55 0"/>
      <feBlend in="SourceGraphic"/>
    </filter>
  </defs>
  <rect width="960" height="560" rx="28" fill="url(#bg)"/>
  <circle cx="698" cy="116" r="156" fill="#245c80" opacity="0.18"/>
  <circle cx="192" cy="426" r="190" fill="#2b916e" opacity="0.12"/>
  <g filter="url(#softGlow)">
    <path d="M379 190c28-18 72-8 90 19l56 82c12 18 7 42-11 54l-133 89c-18 12-42 7-54-11l-56-82c-18-27-11-63 17-82l91-69Z" fill="#d7f5ff" opacity="0.94"/>
    <path d="M398 221c13-9 31-5 40 8l45 67-116 78-45-67c-9-13-5-31 8-40l68-46Z" fill="#6bc9ff"/>
    <path d="M464 210l56-38c21-14 50-9 64 12s9 50-12 64l-36 24-23-34 36-24c2-1 3-4 1-6-1-2-4-3-6-1l-57 38-23-35Z" fill="#c2edf9"/>
    <path d="M271 304l-44 30c-6 4-14 2-18-4s-2-14 4-18l45-30 13 22Z" fill="#c2edf9"/>
    <path d="M544 336c75 8 128 30 159 66" fill="none" stroke="url(#water)" stroke-width="26" stroke-linecap="round"/>
    <path d="M552 373c63 6 107 22 134 48" fill="none" stroke="#b9f2ff" stroke-width="10" stroke-linecap="round" opacity="0.82"/>
  </g>
  <g>
    <rect x="610" y="318" width="176" height="160" rx="18" fill="url(#tank)" stroke="#6fbffd" stroke-width="5"/>
    <path d="M625 413c43-22 86 18 145-1v48c0 9-7 16-16 16H641c-9 0-16-7-16-16v-47Z" fill="url(#water)" opacity="0.92"/>
    <path d="M640 354h116" stroke="#b7e9ff" stroke-width="10" stroke-linecap="round" opacity="0.7"/>
    <path d="M641 382h92" stroke="#b7e9ff" stroke-width="7" stroke-linecap="round" opacity="0.45"/>
  </g>
  <g fill="#96defb" opacity="0.9">
    <circle cx="701" cy="259" r="10"/>
    <circle cx="744" cy="284" r="7"/>
    <circle cx="663" cy="282" r="6"/>
    <circle cx="713" cy="302" r="5"/>
  </g>
</svg>
